<svg xmlns="http://www.w3.org/2000/svg" xmlns:xlink="http://www.w3.org/1999/xlink" width="112" zoomAndPan="magnify" viewBox="0 0 84 83.999999" height="112" preserveAspectRatio="xMidYMid meet" version="1.2"><defs><clipPath id="284fbb0f9d"><path d="M 105.691406 42 C 105.691406 75.925781 78.1875 103.433594 44.257812 103.433594 C 10.332031 103.433594 -17.171875 75.925781 -17.171875 42 C -17.171875 8.074219 10.332031 -19.433594 44.257812 -19.433594 C 78.1875 -19.433594 105.691406 8.074219 105.691406 42 Z M 105.691406 42 "/></clipPath></defs><g id="310d846ec9"><g clip-rule="nonzero" clip-path="url(#284fbb0f9d)"><rect x="0" width="84" y="0" height="83.999999" style="fill:#000000;fill-opacity:1;stroke:none;"/></g><path style=" stroke:none;fill-rule:nonzero;fill:#ffffff;fill-opacity:1;" d="M 44.300781 60.292969 C 31.15625 61.964844 20.054688 50.855469 21.726562 37.707031 C 22.867188 28.742188 30.101562 21.503906 39.058594 20.367188 C 52.203125 18.695312 63.304688 29.804688 61.636719 42.949219 C 60.496094 51.914062 53.261719 59.152344 44.304688 60.289062 Z M 43.695312 28.609375 C 35.574219 27.265625 28.621094 34.222656 29.964844 42.347656 C 30.777344 47.269531 34.746094 51.238281 39.664062 52.050781 C 47.785156 53.394531 54.738281 46.4375 53.394531 38.3125 C 52.582031 33.390625 48.613281 29.421875 43.695312 28.609375 Z M 43.695312 28.609375 "/><path style=" stroke:none;fill-rule:nonzero;fill:#ffffff;fill-opacity:1;" d="M 61.800781 80.636719 L 53.5625 80.636719 C 53.5625 74.082031 48.230469 68.746094 41.679688 68.746094 C 35.125 68.746094 29.792969 74.082031 29.792969 80.636719 L 21.554688 80.636719 C 21.554688 69.535156 30.582031 60.507812 41.675781 60.507812 C 52.769531 60.507812 61.796875 69.535156 61.796875 80.636719 Z M 61.800781 80.636719 "/><path style=" stroke:none;fill-rule:nonzero;fill:#ffffff;fill-opacity:1;" d="M 66.183594 12.140625 C 67.488281 16.917969 63.214844 21.207031 58.4375 19.921875 C 56.355469 19.359375 54.671875 17.667969 54.121094 15.582031 C 52.863281 10.84375 57.066406 6.605469 61.820312 7.832031 C 63.914062 8.375 65.617188 10.054688 66.1875 12.140625 Z M 66.183594 12.140625 "/></g></svg>