<svg xmlns="http://www.w3.org/2000/svg" xmlns:xlink="http://www.w3.org/1999/xlink" width="112" zoomAndPan="magnify" viewBox="0 0 84 83.999999" height="112" preserveAspectRatio="xMidYMid meet" version="1.2"><g id="82af08614d"><rect x="0" width="84" y="0" height="83.999999" style="fill:#ffffff;fill-opacity:1;stroke:none;"/><rect x="0" width="84" y="0" height="83.999999" style="fill:#000000;fill-opacity:1;stroke:none;"/><path style=" stroke:none;fill-rule:nonzero;fill:#ffffff;fill-opacity:1;" d="M 43.5 57.25 C 31.292969 58.800781 20.984375 48.488281 22.535156 36.28125 C 23.59375 27.960938 30.308594 21.242188 38.628906 20.183594 C 50.835938 18.632812 61.148438 28.945312 59.597656 41.148438 C 58.539062 49.46875 51.820312 56.1875 43.503906 57.246094 Z M 42.9375 27.835938 C 35.394531 26.589844 28.9375 33.046875 30.183594 40.589844 C 30.9375 45.15625 34.625 48.84375 39.195312 49.597656 C 46.734375 50.84375 53.191406 44.386719 51.945312 36.84375 C 51.191406 32.277344 47.503906 28.589844 42.9375 27.835938 Z M 42.9375 27.835938 "/><path style=" stroke:none;fill-rule:nonzero;fill:#ffffff;fill-opacity:1;" d="M 59.75 76.132812 L 52.101562 76.132812 C 52.101562 70.046875 47.148438 65.097656 41.0625 65.097656 C 34.976562 65.097656 30.027344 70.046875 30.027344 76.132812 L 22.375 76.132812 C 22.375 65.828125 30.757812 57.445312 41.0625 57.445312 C 51.367188 57.445312 59.746094 65.828125 59.746094 76.132812 Z M 59.75 76.132812 "/><path style=" stroke:none;fill-rule:nonzero;fill:#ff8500;fill-opacity:1;" d="M 63.824219 12.546875 C 65.035156 16.984375 61.0625 20.964844 56.628906 19.769531 C 54.695312 19.25 53.128906 17.679688 52.617188 15.746094 C 51.449219 11.34375 55.355469 7.410156 59.769531 8.550781 C 61.714844 9.050781 63.296875 10.609375 63.824219 12.550781 Z M 63.824219 12.546875 "/></g></svg>